<?xml version="1.0" encoding="UTF-8"?>
<svg version="1.1" xmlns="http://www.w3.org/2000/svg" width="449" height="438">
<path d="M0 0 C4.09583549 2.35362617 6.54665349 4.45873833 8.5 8.875 C10.08005163 14.96153691 9.60567992 19.32698211 6.5 24.875 C4.73023105 27.34636694 2.77480944 29.61020383 0.75 31.875 C-0.05026611 32.78693115 -0.05026611 32.78693115 -0.86669922 33.71728516 C-4.59288824 37.9339704 -8.34136641 42.07798672 -12.5 45.875 C-13.16 45.875 -13.82 45.875 -14.5 45.875 C-14.5 46.535 -14.5 47.195 -14.5 47.875 C-15.96655273 49.31811523 -15.96655273 49.31811523 -17.99609375 50.99609375 C-22.42342803 54.76074097 -26.49500147 58.79109752 -30.5625 62.9375 C-34.94861072 67.40820302 -39.30147214 71.69423773 -44.24780273 75.54858398 C-45.84323512 76.93456061 -45.84323512 76.93456061 -45.5 79.875 C-46.0775 79.99875 -46.655 80.1225 -47.25 80.25 C-49.52335767 80.88148824 -51.4253529 81.76358191 -53.5 82.875 C-53.5 83.535 -53.5 84.195 -53.5 84.875 C-54.95556641 86.32470703 -54.95556641 86.32470703 -56.9765625 88.0078125 C-61.41615077 91.78331805 -65.64972173 95.73777315 -69.875 99.75 C-79.47570539 108.81779456 -89.15883898 117.64721117 -99.5 125.875 C-100.18191406 126.41882324 -100.86382812 126.96264648 -101.56640625 127.52294922 C-110.27317118 134.44482734 -118.91994762 141.18938818 -128.5 146.875 C-129.67020553 147.5961417 -130.83940955 148.31891013 -132.0078125 149.04296875 C-181.35401104 179.43402192 -237.46238247 184.62927541 -293.5 172.875 C-298.75889905 171.62322158 -303.98374175 170.25632421 -309.19116211 168.80566406 C-310.54286499 168.43006348 -310.54286499 168.43006348 -311.921875 168.046875 C-312.71174805 167.8209668 -313.50162109 167.59505859 -314.31542969 167.36230469 C-316.77763128 166.72985618 -316.77763128 166.72985618 -320.5 166.875 C-320.5 166.215 -320.5 165.555 -320.5 164.875 C-321.78003906 164.61976563 -323.06007813 164.36453125 -324.37890625 164.1015625 C-329.59351531 162.93868737 -334.46681465 161.18823996 -339.4375 159.25 C-340.35063965 158.89736084 -341.2637793 158.54472168 -342.20458984 158.18139648 C-351.1065801 154.70475623 -359.82458095 150.87860148 -368.5 146.875 C-369.24926758 146.53388184 -369.99853516 146.19276367 -370.77050781 145.84130859 C-392.08735409 136.12426635 -412.44563894 124.77307693 -431.84375 111.63671875 C-434.35512065 109.9710891 -436.90352398 108.40372229 -439.5 106.875 C-438.43015694 101.14275445 -434.69527196 96.63007685 -431.5 91.875 C-431.12665527 91.31925293 -430.75331055 90.76350586 -430.36865234 90.19091797 C-425.14562746 82.48177685 -419.55583117 75.44273849 -413.140625 68.69140625 C-411.21289011 66.63534582 -409.44311922 64.5875944 -407.66796875 62.41015625 C-404.39657072 58.56376932 -400.64335588 55.69192259 -396.5625 52.75 C-395.88509766 52.25113281 -395.20769531 51.75226563 -394.50976562 51.23828125 C-393.15918212 50.24638579 -391.80389725 49.26085806 -390.44384766 48.28198242 C-389.20876998 47.38801701 -387.98316623 46.48069714 -386.77099609 45.5559082 C-382.15117041 42.08533628 -377.2716829 39.65236773 -372 37.3125 C-371.12214844 36.92118896 -370.24429688 36.52987793 -369.33984375 36.12670898 C-361.86511291 32.87963477 -354.49308716 30.54409013 -346.5 28.875 C-345.51257813 28.66359375 -344.52515625 28.4521875 -343.5078125 28.234375 C-309.00418181 21.6889708 -276.54420831 31.42360666 -243.88867188 41.73583984 C-243.07100342 41.99309845 -242.25333496 42.25035706 -241.41088867 42.51541138 C-239.88193259 42.99743568 -238.35400352 43.48273663 -236.82739258 43.97213745 C-231.77203401 45.56680271 -226.68999548 46.79968275 -221.5 47.875 C-221.5 48.535 -221.5 49.195 -221.5 49.875 C-220.8915625 49.97296875 -220.283125 50.0709375 -219.65625 50.171875 C-213.02798893 51.30257836 -206.56005919 52.80367338 -200.07226562 54.55371094 C-196.44414379 55.50478946 -193.24206484 55.97310657 -189.5 55.875 C-189.17 56.205 -188.84 56.535 -188.5 56.875 C-173.74819437 59.20065865 -159.78647718 59.0468812 -144.94677734 57.58691406 C-125.60386524 55.73152635 -125.60386524 55.73152635 -117.5 60.875 C-113.46104903 65.11589852 -112.18281019 67.89596573 -112.2890625 73.79296875 C-112.90002489 79.82339385 -117.16653181 84.9089164 -121.5 88.875 C-133.74510748 98.0543746 -148.34966295 103.20846292 -163.5 104.875 C-164.76070313 105.03935547 -164.76070313 105.03935547 -166.046875 105.20703125 C-192.77541411 108.24436524 -219.70939042 103.5743441 -245.84887695 98.30053711 C-254.69606669 96.52276577 -263.44046824 94.875 -272.5 94.875 C-272.83 95.535 -273.16 96.195 -273.5 96.875 C-253.10226353 103.81668779 -232.08738071 110.39458615 -210.44921875 111.66015625 C-207.4763822 111.8767205 -204.54255426 112.24794241 -201.59008789 112.65283203 C-172.97699182 116.54990831 -141.37014957 111.96570233 -117.5 94.875 C-116.61054687 94.26205078 -116.61054687 94.26205078 -115.703125 93.63671875 C-110.55625164 89.77656373 -106.5266853 83.95505591 -104.5 77.875 C-104.70653183 76.35392097 -104.91509143 74.83311672 -105.125 73.3125 C-105.22405595 69.34443505 -104.72454578 68.1366668 -102.08984375 65.06640625 C-100.12636734 63.24447976 -98.09262132 61.5921605 -96.00390625 59.90625 C-93.45089827 58.12084973 -93.45089827 58.12084973 -92.5 55.875 C-91.55125 55.38 -90.6025 54.885 -89.625 54.375 C-84.92156042 51.79290766 -81.28306511 48.15028857 -77.37890625 44.51171875 C-73.84726572 41.27717688 -70.15638224 38.2833516 -66.43359375 35.2734375 C-63.16593192 32.60187376 -59.95218628 29.87437887 -56.75 27.125 C-55.87492798 26.37464478 -55.87492798 26.37464478 -54.98217773 25.60913086 C-51.84611363 22.91333586 -48.72723717 20.19950623 -45.625 17.46484375 C-16.94951806 -7.76122688 -16.94951806 -7.76122688 0 0 Z " fill="#D9B282" transform="translate(439.5,257.125)"/>
<path d="M0 0 C13.15922819 6.62859065 24.38339605 14.53159303 35.09765625 24.671875 C35.87109375 25.39246094 36.64453125 26.11304688 37.44140625 26.85546875 C43.10812055 32.29900766 47.72111929 38.15511538 52.09765625 44.671875 C52.73316406 45.61289062 53.36867187 46.55390625 54.0234375 47.5234375 C71.38403923 74.45150512 79.02444392 104.8317595 86.09765625 135.671875 C86.27304932 135.11951172 86.44844238 134.56714844 86.62915039 133.99804688 C91.85030368 117.66650941 97.12989324 101.80338712 107.09765625 87.671875 C107.72929687 86.74375 108.3609375 85.815625 109.01171875 84.859375 C126.93331301 59.62147446 151.88593456 43.84562122 182.09765625 37.671875 C186.11965261 37.00084328 189.95922763 36.54666841 194.03515625 36.609375 C194.80730469 36.61839844 195.57945312 36.62742188 196.375 36.63671875 C196.94347656 36.64832031 197.51195312 36.65992188 198.09765625 36.671875 C198.42765625 36.011875 198.75765625 35.351875 199.09765625 34.671875 C201.1392472 34.6446134 203.18094588 34.62536155 205.22265625 34.609375 C206.35960937 34.59777344 207.4965625 34.58617187 208.66796875 34.57421875 C211.91057185 34.666548 214.91698237 35.05797594 218.09765625 35.671875 C216.90414034 68.37421095 204.82446393 101.71913993 182.09765625 125.671875 C181.43765625 125.671875 180.77765625 125.671875 180.09765625 125.671875 C179.87722656 126.23390625 179.65679687 126.7959375 179.4296875 127.375 C169.6482564 144.24151463 141.3662533 154.83748908 123.4140625 159.640625 C116.38720206 161.39126151 109.25057185 162.57073781 102.09765625 163.671875 C103.91544749 149.74479753 113.9874731 135.77528811 122.09765625 124.671875 C122.51160645 124.10243164 122.92555664 123.53298828 123.35205078 122.94628906 C129.12976061 115.06656757 135.40247347 107.7801648 142.09765625 100.671875 C141.76765625 100.011875 141.43765625 99.351875 141.09765625 98.671875 C137.73212543 101.29985332 134.40569982 103.97189431 131.09765625 106.671875 C130.27136719 107.34605469 129.44507813 108.02023438 128.59375 108.71484375 C107.92143 126.40079329 94.57604953 151.92661462 91.34765625 178.859375 C91.23881834 180.46201328 91.15757085 182.06666306 91.09765625 183.671875 C91.04609375 184.75855469 90.99453125 185.84523437 90.94140625 186.96484375 C90.60341926 199.87876342 93.58477739 209.77646882 100.09765625 220.859375 C107.49139048 233.60195802 111.69292289 244.77690289 108.44140625 259.6796875 C105.88062282 266.89844769 101.4508099 271.5062966 95.09765625 275.609375 C88.59530117 277.9685061 80.10744651 277.80362157 73.5234375 275.9453125 C66.2747422 272.54878099 61.83988206 266.55181322 58.09765625 259.671875 C55.04077569 250.50123333 56.58153146 239.82806883 60.33203125 231.15234375 C62.4943013 226.88999284 64.85061135 222.75744336 67.22265625 218.609375 C80.21665282 195.75377856 75.72932415 167.27536424 69.2734375 142.66796875 C66.28422547 130.77882418 66.28422547 130.77882418 60.09765625 120.671875 C59.43765625 120.341875 58.77765625 120.011875 58.09765625 119.671875 C58.42765625 118.681875 58.75765625 117.691875 59.09765625 116.671875 C50.31100107 91.98177152 25.18090262 67.63815188 2.28515625 56.109375 C1.23328125 55.635 0.18140625 55.160625 -0.90234375 54.671875 C1.76368307 57.41631437 4.41867093 59.97187128 7.41015625 62.359375 C8.29703125 63.1225 9.18390625 63.885625 10.09765625 64.671875 C10.09765625 65.331875 10.09765625 65.991875 10.09765625 66.671875 C10.91943359 66.99478516 10.91943359 66.99478516 11.7578125 67.32421875 C14.8948708 69.13103864 17.12597721 71.58125864 19.53515625 74.234375 C20.0559375 74.80591309 20.57671875 75.37745117 21.11328125 75.96630859 C36.87547034 93.55770161 55.97461223 116.54236412 59.09765625 140.671875 C12.1946971 130.98489576 -28.85511506 113.58062743 -56.25390625 72.171875 C-72.90306192 46.10677178 -78.7374724 17.14245707 -79.90234375 -13.328125 C-56.95886865 -20.97595003 -21.03512399 -10.21835727 0 0 Z M149.09765625 91.671875 C149.09765625 92.661875 149.09765625 93.651875 149.09765625 94.671875 C149.75765625 93.681875 150.41765625 92.691875 151.09765625 91.671875 C150.43765625 91.671875 149.77765625 91.671875 149.09765625 91.671875 Z M145.09765625 94.671875 C145.09765625 95.661875 145.09765625 96.651875 145.09765625 97.671875 C145.75765625 96.681875 146.41765625 95.691875 147.09765625 94.671875 C146.43765625 94.671875 145.77765625 94.671875 145.09765625 94.671875 Z " fill="#8BAF7D" transform="translate(145.90234375,14.328125)"/>
<path d="M0 0 C3.96254665 2.20141481 5.72086023 4.25571849 8.375 7.875 C6.00351109 12.4182735 2.95318524 15.38933704 -0.8125 18.75 C-1.399104 19.28173828 -1.98570801 19.81347656 -2.59008789 20.36132812 C-4.262148 21.87303474 -5.94172644 23.37580124 -7.625 24.875 C-8.68460938 25.82246094 -8.68460938 25.82246094 -9.765625 26.7890625 C-12.74732687 29.4207385 -15.77199938 32.00096482 -18.80078125 34.578125 C-24.63695378 39.55021977 -30.42768336 44.54973582 -36.0625 49.75 C-37.03058594 50.63945312 -37.99867188 51.52890625 -38.99609375 52.4453125 C-40.60215665 53.92966781 -42.20054935 55.42244839 -43.78515625 56.9296875 C-45.625 58.625 -45.625 58.625 -48.625 60.875 C-52.43901289 60.47550853 -54.73604939 58.44087311 -57.6484375 56.12890625 C-62.77341054 52.87768817 -68.11304934 52.50549153 -74 52.25 C-74.73605469 52.21132813 -75.47210938 52.17265625 -76.23046875 52.1328125 C-78.02827406 52.03942002 -79.82660108 51.9561629 -81.625 51.875 C-78.71626458 47.92192343 -75.4868362 45.01260944 -71.5625 42.125 C-70.39216189 41.24490705 -69.2229075 40.36337131 -68.0546875 39.48046875 C-67.47428711 39.0426709 -66.89388672 38.60487305 -66.29589844 38.15380859 C-63.87952221 36.30445461 -61.53288863 34.37575143 -59.1875 32.4375 C-51.3497267 25.98153067 -43.40290594 19.66245475 -35.24609375 13.61328125 C-34.51801514 13.07292236 -33.78993652 12.53256348 -33.03979492 11.97583008 C-31.62283741 10.92801341 -30.20254112 9.88469313 -28.77856445 8.84643555 C-28.13491943 8.37117432 -27.49127441 7.89591309 -26.828125 7.40625 C-26.25739258 6.98923828 -25.68666016 6.57222656 -25.09863281 6.14257812 C-23.34913033 4.75268423 -23.34913033 4.75268423 -21.625 1.875 C-19.375 1.3125 -19.375 1.3125 -16.625 0.875 C-15.67625 0.524375 -14.7275 0.17375 -13.75 -0.1875 C-8.74395428 -1.68931372 -4.98488943 -1.54703465 0 0 Z " fill="#D8B181" transform="translate(384.625,255.125)"/>
<path d="M0 0 C2.20826378 -0.02722517 4.41662638 -0.04649729 6.625 -0.0625 C8.46964844 -0.07990234 8.46964844 -0.07990234 10.3515625 -0.09765625 C13.67723791 -0.00863924 16.74047588 0.36313913 20 1 C19.53430878 8.8187104 18.77541538 16.36399015 17 24 C16.67 24 16.34 24 16 24 C16.14261094 21.81228756 16.28924461 19.62483718 16.4375 17.4375 C16.55931641 15.61025391 16.55931641 15.61025391 16.68359375 13.74609375 C16.9894259 10.12519214 17.4502074 6.58982228 18 3 C-17.16092869 3.81030406 -49.22096155 10.02917333 -74.671875 36.56640625 C-75.11015625 37.03949219 -75.5484375 37.51257813 -76 38 C-76.66 37.67 -77.32 37.34 -78 37 C-59.93802231 17.2482323 -35.64759595 5.07103147 -9 2 C-7.35514934 1.93943849 -5.70827043 1.91218045 -4.0625 1.9375 C-3.29035156 1.94652344 -2.51820313 1.95554688 -1.72265625 1.96484375 C-1.15417969 1.97644531 -0.58570313 1.98804688 0 2 C0 1.34 0 0.68 0 0 Z " fill="#6A895B" transform="translate(344,49)"/>
<path d="M0 0 C10.71276547 8.38390341 18.63776776 19.68165345 26 31 C26.38043457 31.58120605 26.76086914 32.16241211 27.15283203 32.76123047 C31.81255951 39.9590722 35.79226108 47.2805133 39.125 55.1875 C39.43260254 55.90647461 39.74020508 56.62544922 40.05712891 57.36621094 C41.53790164 61.04581295 42.21135227 63.22425545 41 67 C32.94104351 65.19346126 24.94821959 63.2458897 17 61 C20.17459631 59.98501453 22.30877671 60.05533535 25.546875 60.77734375 C26.81337891 61.05288086 26.81337891 61.05288086 28.10546875 61.33398438 C28.97816406 61.53314453 29.85085937 61.73230469 30.75 61.9375 C31.63816406 62.13279297 32.52632812 62.32808594 33.44140625 62.52929688 C35.62949322 63.01161712 37.8154173 63.50209032 40 64 C31.29670063 41.14104017 18.35226639 21.63006812 1.58203125 3.890625 C0 2 0 2 0 0 Z " fill="#6D8E5F" transform="translate(163,88)"/>
<path d="M0 0 C0 3.26875696 -0.40493131 3.98847734 -2.125 6.6328125 C-2.58092529 7.34904785 -3.03685059 8.0652832 -3.5065918 8.80322266 C-3.9994165 9.56940918 -4.49224121 10.3355957 -5 11.125 C-10.44220256 19.77135787 -14.875927 28.66470582 -19 38 C-18.39671875 37.84402344 -17.7934375 37.68804687 -17.171875 37.52734375 C-15.97304687 37.23537109 -15.97304687 37.23537109 -14.75 36.9375 C-13.56664062 36.64166016 -13.56664062 36.64166016 -12.359375 36.33984375 C-10 36 -10 36 -6 37 C-10.95 37.99 -15.9 38.98 -21 40 C-19.96604407 34.83022034 -18.29961956 30.84392407 -16.0625 26.125 C-15.47275391 24.87710693 -15.47275391 24.87710693 -14.87109375 23.60400391 C-10.99185814 15.61832902 -6.35061134 6.35061134 0 0 Z " fill="#6E8D5E" transform="translate(269,138)"/>
<path d="M0 0 C2.17723742 2.17723742 2.41899846 3.00485979 3.0703125 5.9140625 C3.24433594 6.67460937 3.41835937 7.43515625 3.59765625 8.21875 C3.77167969 9.0128125 3.94570312 9.806875 4.125 10.625 C4.30675781 11.42679688 4.48851562 12.22859375 4.67578125 13.0546875 C5.12370789 15.03499476 5.56270604 17.0173177 6 19 C6.66 17.35 7.32 15.7 8 14 C9.60080151 18.00200378 8.29279692 21.04556236 7 25 C6.34 25 5.68 25 5 25 C0 7.46666667 0 7.46666667 0 0 Z " fill="#749666" transform="translate(226,131)"/>
<path d="M0 0 C8.15118439 1.159167 16.28125295 1.70969097 24.5 2.125 C24.5 2.455 24.5 2.785 24.5 3.125 C10.99772472 3.37215514 -2.11634858 2.97557896 -15.5 1.125 C-15.5 0.795 -15.5 0.465 -15.5 0.125 C-10.02526219 -0.73496988 -5.52886785 -0.83389949 0 0 Z " fill="#C09969" transform="translate(239.5,369.875)"/>
<path d="M0 0 C0.66 0.33 1.32 0.66 2 1 C0.7934375 2.11375 0.7934375 2.11375 -0.4375 3.25 C-2.96838147 5.96606792 -3.22071002 6.66018578 -4 10 C-5.75 11.4375 -5.75 11.4375 -8 13 C-9.6857124 14.64740076 -11.3563186 16.31066078 -13 18 C-13.66 17.67 -14.32 17.34 -15 17 C-14.41992188 16.35933594 -13.83984375 15.71867187 -13.2421875 15.05859375 C-8.75905025 10.09459194 -4.32554972 5.10193044 0 0 Z " fill="#C8A274" transform="translate(35,316)"/>
<path d="M0 0 C0.66 0.33 1.32 0.66 2 1 C0.35 2.32 -1.3 3.64 -3 5 C-2.08476562 5.12117188 -1.16953125 5.24234375 -0.2265625 5.3671875 C1.55621094 5.61855469 1.55621094 5.61855469 3.375 5.875 C4.55835938 6.03742188 5.74171875 6.19984375 6.9609375 6.3671875 C10 7 10 7 12 9 C5.4 8.67 -1.2 8.34 -8 8 C-3.5 2.375 -3.5 2.375 0 0 Z " fill="#C29F70" transform="translate(311,299)"/>
<path d="M0 0 C3.76154738 1.25384913 5.27191198 3.14200302 8 6 C10.66673596 8.7351138 13.33344759 11.30285945 16.3125 13.6875 C17.6428125 14.8321875 17.6428125 14.8321875 19 16 C19 16.66 19 17.32 19 18 C15.45815946 16.501529 13.27223438 14.45084115 10.625 11.6875 C7.99359745 8.98215721 5.3944704 6.40841001 2.4375 4.0625 C1.633125 3.381875 0.82875 2.70125 0 2 C0 1.34 0 0.68 0 0 Z " fill="#779967" transform="translate(137,63)"/>
<path d="M0 0 C0.66 0.33 1.32 0.66 2 1 C1.3125 2.875 1.3125 2.875 0 5 C-1.64551962 5.71727778 -3.31422289 6.38325228 -5 7 C-6.77277259 8.52007842 -6.77277259 8.52007842 -8 10 C-8.66 9.67 -9.32 9.34 -10 9 C-9.0919838 7.86800647 -8.17316174 6.74467637 -7.25 5.625 C-6.73953125 4.99851562 -6.2290625 4.37203125 -5.703125 3.7265625 C-3.89125541 1.88975893 -2.41535913 0.89348651 0 0 Z " fill="#CCA677" transform="translate(351,311)"/>
<path d="M0 0 C0 0.99 0 1.98 0 3 C-1.62053812 4.38903267 -3.29705213 5.71332828 -5 7 C-6.68528688 8.64783606 -8.35697047 10.31002677 -10 12 C-10 8.09538875 -8.66236719 7.66236719 -6 5 C-6 4.01 -6 3.02 -6 2 C-4.02 1.34 -2.04 0.68 0 0 Z " fill="#7D9F6D" transform="translate(294,110)"/>
<path d="M0 0 C1.39195915 4.17587745 -0.17676781 6.13474776 -2 10 C-0.68 10.66 0.64 11.32 2 12 C-0.31 12.33 -2.62 12.66 -5 13 C-4.54554036 11.58208592 -4.08625056 10.16571954 -3.625 8.75 C-3.24214844 7.56664062 -3.24214844 7.56664062 -2.8515625 6.359375 C-2.04826333 4.13372042 -1.10288338 2.09068328 0 0 Z " fill="#97BC87" transform="translate(255,163)"/>
<path d="M0 0 C2 2 2 2 2 5 C0.58249437 4.88490339 -0.83401169 4.75746342 -2.25 4.625 C-3.03890625 4.55539063 -3.8278125 4.48578125 -4.640625 4.4140625 C-7 4 -7 4 -11 2 C-7.37 2.33 -3.74 2.66 0 3 C0 2.01 0 1.02 0 0 Z " fill="#9CC18B" transform="translate(201,147)"/>
<path d="M0 0 C0.66 0.33 1.32 0.66 2 1 C0.35 2.98 -1.3 4.96 -3 7 C-4.32 6.67 -5.64 6.34 -7 6 C-4.69 4.02 -2.38 2.04 0 0 Z " fill="#C9A474" transform="translate(336,279)"/>
<path d="M0 0 C3.43752007 1.5277867 6.18953688 3.50181056 9 6 C9 6.66 9 7.32 9 8 C4.7257442 6.4169423 2.73468206 3.49431596 0 0 Z " fill="#6B8B5C" transform="translate(147,73)"/>
<path d="M0 0 C1.98 0 3.96 0 6 0 C6 0.33 6 0.66 6 1 C4.02 1 2.04 1 0 1 C0 0.67 0 0.34 0 0 Z " fill="#DAB585" transform="translate(237,369)"/>
<path d="M0 0 C4 1 4 1 4 1 Z " fill="#DAB787" transform="translate(206,359)"/>
<path d="M0 0 C0.66 0.33 1.32 0.66 2 1 C1.01 1 0.02 1 -1 1 C-0.67 0.67 -0.34 0.34 0 0 Z " fill="#D8B485" transform="translate(380,284)"/>
<path d="M0 0 C1 4 1 4 1 4 Z " fill="#8FB280" transform="translate(224,112)"/>
<path d="M0 0 C4 1 4 1 4 1 Z " fill="#85A878" transform="translate(339,49)"/>
<path d="M0 0 C4 1 4 1 4 1 Z " fill="#87AB79" transform="translate(106,1)"/>
<path d="M0 0 C3 1 3 1 3 1 Z " fill="#DDB687" transform="translate(253,370)"/>
<path d="M0 0 C3 1 3 1 3 1 Z " fill="#DCB788" transform="translate(267,369)"/>
<path d="M0 0 C3 1 3 1 3 1 Z " fill="#D8B587" transform="translate(192,361)"/>
<path d="M0 0 C0.66 0.66 1.32 1.32 2 2 C1.34 2 0.68 2 0 2 C0 1.34 0 0.68 0 0 Z " fill="#D8B485" transform="translate(328,327)"/>
<path d="M0 0 C0.66 0.66 1.32 1.32 2 2 C1.34 2 0.68 2 0 2 C0 1.34 0 0.68 0 0 Z " fill="#DAB786" transform="translate(331,324)"/>
<path d="M0 0 C3 1 3 1 3 1 Z " fill="#D7B585" transform="translate(286,314)"/>
<path d="M0 0 C3 1 3 1 3 1 Z " fill="#D5B585" transform="translate(252,313)"/>
<path d="M0 0 C0.99 0.495 0.99 0.495 2 1 C1.01 1.495 1.01 1.495 0 2 C0 1.34 0 0.68 0 0 Z " fill="#D7B486" transform="translate(355,305)"/>
<path d="M0 0 C3 1 3 1 3 1 Z " fill="#D2B686" transform="translate(222,306)"/>
<path d="M0 0 C3 1 3 1 3 1 Z " fill="#D1B386" transform="translate(192,297)"/>
<path d="M0 0 C3 1 3 1 3 1 Z " fill="#D2B384" transform="translate(134,282)"/>
<path d="M0 0 C3 1 3 1 3 1 Z " fill="#8FB381" transform="translate(178,150)"/>
<path d="M0 0 C0.99 0.495 0.99 0.495 2 1 C1.01 1.495 1.01 1.495 0 2 C0 1.34 0 0.68 0 0 Z " fill="#8FAF7F" transform="translate(267,81)"/>
<path d="" fill="#84A877" transform="translate(0,0)"/>
<path d="M0 0 C2 1 2 1 2 1 Z " fill="#D8B382" transform="translate(247,432)"/>
<path d="M0 0 C2 1 2 1 2 1 Z " fill="#D2B787" transform="translate(147,431)"/>
<path d="M0 0 C2 1 2 1 2 1 Z " fill="#D1B283" transform="translate(120,424)"/>
<path d="M0 0 C2 1 2 1 2 1 Z " fill="#D2B283" transform="translate(111,421)"/>
<path d="M0 0 C2 1 2 1 2 1 Z " fill="#D0B081" transform="translate(86,412)"/>
<path d="" fill="#CAAD7E" transform="translate(0,0)"/>
<path d="M0 0 C2 1 2 1 2 1 Z " fill="#DCB585" transform="translate(264,369)"/>
<path d="M0 0 C2 1 2 1 2 1 Z " fill="#D9B686" transform="translate(259,364)"/>
<path d="M0 0 C2 1 2 1 2 1 Z " fill="#D8B586" transform="translate(204,358)"/>
<path d="M0 0 C2 1 2 1 2 1 Z " fill="#DBB887" transform="translate(193,356)"/>
<path d="M0 0 C2 1 2 1 2 1 Z " fill="#D7B583" transform="translate(296,313)"/>
<path d="M0 0 C2 1 2 1 2 1 Z " fill="#D5B284" transform="translate(256,313)"/>
<path d="M0 0 C2 1 2 1 2 1 Z " fill="#D9B485" transform="translate(326,312)"/>
<path d="M0 0 C2 1 2 1 2 1 Z " fill="#D9B485" transform="translate(320,309)"/>
<path d="M0 0 C2 1 2 1 2 1 Z " fill="#DAB684" transform="translate(316,308)"/>
<path d="M0 0 C2 1 2 1 2 1 Z " fill="#D3B284" transform="translate(76,289)"/>
<path d="" fill="#ABB985" transform="translate(0,0)"/>
<path d="" fill="#ACB684" transform="translate(0,0)"/>
<path d="M0 0 C2 1 2 1 2 1 Z " fill="#D4B384" transform="translate(127,282)"/>
<path d="" fill="#8FB281" transform="translate(0,0)"/>
<path d="" fill="#91B382" transform="translate(0,0)"/>
<path d="M0 0 C2 1 2 1 2 1 Z " fill="#90AF7E" transform="translate(288,168)"/>
<path d="" fill="#92B583" transform="translate(0,0)"/>
<path d="M0 0 C2 1 2 1 2 1 Z " fill="#8DAF7E" transform="translate(149,140)"/>
<path d="" fill="#92B684" transform="translate(0,0)"/>
<path d="" fill="#93B584" transform="translate(0,0)"/>
<path d="M0 0 C2 1 2 1 2 1 Z " fill="#91B581" transform="translate(157,77)"/>
<path d="M0 0 C2 1 2 1 2 1 Z " fill="#81A573" transform="translate(336,49)"/>
<path d="" fill="#87A97A" transform="translate(0,0)"/>
<path d="" fill="#87AB7A" transform="translate(0,0)"/>
<path d="" fill="#CEB281" transform="translate(0,0)"/>
<path d="" fill="#D1B382" transform="translate(0,0)"/>
<path d="" fill="#D0B282" transform="translate(0,0)"/>
<path d="" fill="#D4B483" transform="translate(0,0)"/>
<path d="" fill="#D4B586" transform="translate(0,0)"/>
<path d="" fill="#D2B384" transform="translate(0,0)"/>
<path d="" fill="#D1B383" transform="translate(0,0)"/>
<path d="" fill="#D1B282" transform="translate(0,0)"/>
<path d="" fill="#D1B283" transform="translate(0,0)"/>
<path d="" fill="#D3B285" transform="translate(0,0)"/>
<path d="" fill="#D0B181" transform="translate(0,0)"/>
<path d="" fill="#D2B483" transform="translate(0,0)"/>
<path d="" fill="#D2B385" transform="translate(0,0)"/>
<path d="" fill="#D3B385" transform="translate(0,0)"/>
<path d="" fill="#D1AF81" transform="translate(0,0)"/>
<path d="" fill="#D0B283" transform="translate(0,0)"/>
<path d="" fill="#CEB080" transform="translate(0,0)"/>
<path d="" fill="#CFB384" transform="translate(0,0)"/>
<path d="" fill="#D0B084" transform="translate(0,0)"/>
<path d="" fill="#D2B384" transform="translate(0,0)"/>
<path d="" fill="#CDB183" transform="translate(0,0)"/>
<path d="" fill="#D3B081" transform="translate(0,0)"/>
<path d="" fill="#D2AF7E" transform="translate(0,0)"/>
<path d="" fill="#D1B283" transform="translate(0,0)"/>
<path d="" fill="#D0B181" transform="translate(0,0)"/>
<path d="" fill="#D0B182" transform="translate(0,0)"/>
<path d="" fill="#D2B383" transform="translate(0,0)"/>
<path d="" fill="#D0B183" transform="translate(0,0)"/>
<path d="" fill="#D1B284" transform="translate(0,0)"/>
<path d="" fill="#CFB07F" transform="translate(0,0)"/>
<path d="" fill="#CCAF82" transform="translate(0,0)"/>
<path d="" fill="#CEAF7F" transform="translate(0,0)"/>
<path d="" fill="#D2AE81" transform="translate(0,0)"/>
<path d="" fill="#CCAD81" transform="translate(0,0)"/>
<path d="" fill="#CBA77B" transform="translate(0,0)"/>
<path d="" fill="#D0AF81" transform="translate(0,0)"/>
<path d="" fill="#C2A77A" transform="translate(0,0)"/>
<path d="" fill="#DDB686" transform="translate(0,0)"/>
<path d="" fill="#DDB786" transform="translate(0,0)"/>
<path d="" fill="#C8AB7C" transform="translate(0,0)"/>
<path d="" fill="#D3B181" transform="translate(0,0)"/>
<path d="" fill="#DCB787" transform="translate(0,0)"/>
<path d="" fill="#DAB587" transform="translate(0,0)"/>
<path d="" fill="#DBB485" transform="translate(0,0)"/>
<path d="" fill="#DCB686" transform="translate(0,0)"/>
<path d="" fill="#DBB788" transform="translate(0,0)"/>
<path d="" fill="#D9B586" transform="translate(0,0)"/>
<path d="" fill="#DBB686" transform="translate(0,0)"/>
<path d="" fill="#DEB98B" transform="translate(0,0)"/>
<path d="" fill="#DDB585" transform="translate(0,0)"/>
<path d="" fill="#DAB485" transform="translate(0,0)"/>
<path d="" fill="#DCB585" transform="translate(0,0)"/>
<path d="" fill="#DAB587" transform="translate(0,0)"/>
<path d="" fill="#DCB686" transform="translate(0,0)"/>
<path d="" fill="#DDB884" transform="translate(0,0)"/>
<path d="" fill="#DBB889" transform="translate(0,0)"/>
<path d="" fill="#DAB686" transform="translate(0,0)"/>
<path d="" fill="#D9B485" transform="translate(0,0)"/>
<path d="" fill="#DBB685" transform="translate(0,0)"/>
<path d="" fill="#C2A57A" transform="translate(0,0)"/>
<path d="" fill="#D6B285" transform="translate(0,0)"/>
<path d="" fill="#DAB787" transform="translate(0,0)"/>
<path d="" fill="#DAB985" transform="translate(0,0)"/>
<path d="" fill="#DBB687" transform="translate(0,0)"/>
<path d="" fill="#CEAC7E" transform="translate(0,0)"/>
<path d="" fill="#CEAB7C" transform="translate(0,0)"/>
<path d="" fill="#DAB685" transform="translate(0,0)"/>
<path d="" fill="#D7B486" transform="translate(0,0)"/>
<path d="" fill="#CBAA7D" transform="translate(0,0)"/>
<path d="" fill="#D9B785" transform="translate(0,0)"/>
<path d="" fill="#C7A87D" transform="translate(0,0)"/>
<path d="" fill="#D9B586" transform="translate(0,0)"/>
<path d="" fill="#D8B686" transform="translate(0,0)"/>
<path d="" fill="#C9AB7E" transform="translate(0,0)"/>
<path d="" fill="#CEA97C" transform="translate(0,0)"/>
<path d="" fill="#D9B686" transform="translate(0,0)"/>
<path d="" fill="#DCB687" transform="translate(0,0)"/>
<path d="" fill="#D7B584" transform="translate(0,0)"/>
<path d="" fill="#D9B586" transform="translate(0,0)"/>
<path d="" fill="#DAB785" transform="translate(0,0)"/>
<path d="" fill="#D6B486" transform="translate(0,0)"/>
<path d="" fill="#D6B584" transform="translate(0,0)"/>
<path d="" fill="#D7B585" transform="translate(0,0)"/>
<path d="" fill="#CBAB7E" transform="translate(0,0)"/>
<path d="" fill="#CFAB80" transform="translate(0,0)"/>
<path d="" fill="#DAB587" transform="translate(0,0)"/>
<path d="" fill="#D9B686" transform="translate(0,0)"/>
<path d="" fill="#D4B384" transform="translate(0,0)"/>
<path d="" fill="#D2B786" transform="translate(0,0)"/>
<path d="" fill="#C9AA7F" transform="translate(0,0)"/>
<path d="" fill="#DDB686" transform="translate(0,0)"/>
<path d="" fill="#CFB886" transform="translate(0,0)"/>
<path d="" fill="#CBAB80" transform="translate(0,0)"/>
<path d="" fill="#CFAC7E" transform="translate(0,0)"/>
<path d="" fill="#CFB487" transform="translate(0,0)"/>
<path d="" fill="#DAB885" transform="translate(0,0)"/>
<path d="" fill="#D7B586" transform="translate(0,0)"/>
<path d="" fill="#CFB787" transform="translate(0,0)"/>
<path d="" fill="#D2B687" transform="translate(0,0)"/>
<path d="" fill="#DBB487" transform="translate(0,0)"/>
<path d="" fill="#D8B484" transform="translate(0,0)"/>
<path d="" fill="#CFAD80" transform="translate(0,0)"/>
<path d="" fill="#CCA77A" transform="translate(0,0)"/>
<path d="" fill="#D8B685" transform="translate(0,0)"/>
<path d="" fill="#D9B486" transform="translate(0,0)"/>
<path d="" fill="#B5B483" transform="translate(0,0)"/>
<path d="" fill="#CBAC7F" transform="translate(0,0)"/>
<path d="" fill="#CCAE80" transform="translate(0,0)"/>
<path d="" fill="#D8B585" transform="translate(0,0)"/>
<path d="" fill="#D3B588" transform="translate(0,0)"/>
<path d="" fill="#D3B789" transform="translate(0,0)"/>
<path d="" fill="#D9B585" transform="translate(0,0)"/>
<path d="" fill="#D3B688" transform="translate(0,0)"/>
<path d="" fill="#D8B382" transform="translate(0,0)"/>
<path d="" fill="#D0B383" transform="translate(0,0)"/>
<path d="" fill="#CEAE80" transform="translate(0,0)"/>
<path d="" fill="#D2B385" transform="translate(0,0)"/>
<path d="" fill="#BF9F76" transform="translate(0,0)"/>
<path d="" fill="#D2B586" transform="translate(0,0)"/>
<path d="" fill="#D2B284" transform="translate(0,0)"/>
<path d="" fill="#CFB082" transform="translate(0,0)"/>
<path d="" fill="#D1B184" transform="translate(0,0)"/>
<path d="" fill="#D3B185" transform="translate(0,0)"/>
<path d="" fill="#CFB081" transform="translate(0,0)"/>
<path d="" fill="#D2B182" transform="translate(0,0)"/>
<path d="" fill="#D1B181" transform="translate(0,0)"/>
<path d="" fill="#D3B185" transform="translate(0,0)"/>
<path d="" fill="#A4B384" transform="translate(0,0)"/>
<path d="" fill="#A6B785" transform="translate(0,0)"/>
<path d="" fill="#D9B383" transform="translate(0,0)"/>
<path d="" fill="#9DB485" transform="translate(0,0)"/>
<path d="" fill="#D2AF82" transform="translate(0,0)"/>
<path d="" fill="#CFAF82" transform="translate(0,0)"/>
<path d="" fill="#C1A075" transform="translate(0,0)"/>
<path d="" fill="#CFAC80" transform="translate(0,0)"/>
<path d="" fill="#95B280" transform="translate(0,0)"/>
<path d="" fill="#95B581" transform="translate(0,0)"/>
<path d="" fill="#90B382" transform="translate(0,0)"/>
<path d="" fill="#90B382" transform="translate(0,0)"/>
<path d="" fill="#91AF7F" transform="translate(0,0)"/>
<path d="" fill="#91B182" transform="translate(0,0)"/>
<path d="" fill="#93B382" transform="translate(0,0)"/>
<path d="" fill="#94B682" transform="translate(0,0)"/>
<path d="" fill="#90B07F" transform="translate(0,0)"/>
<path d="" fill="#97B886" transform="translate(0,0)"/>
<path d="" fill="#8EB080" transform="translate(0,0)"/>
<path d="" fill="#95B683" transform="translate(0,0)"/>
<path d="" fill="#90B480" transform="translate(0,0)"/>
<path d="" fill="#91B482" transform="translate(0,0)"/>
<path d="" fill="#8FAD7F" transform="translate(0,0)"/>
<path d="" fill="#8FB180" transform="translate(0,0)"/>
<path d="" fill="#92B07E" transform="translate(0,0)"/>
<path d="" fill="#8FB07E" transform="translate(0,0)"/>
<path d="" fill="#91B280" transform="translate(0,0)"/>
<path d="" fill="#8EB17F" transform="translate(0,0)"/>
<path d="" fill="#91B481" transform="translate(0,0)"/>
<path d="" fill="#8FB180" transform="translate(0,0)"/>
<path d="" fill="#8FB080" transform="translate(0,0)"/>
<path d="" fill="#8FAD7B" transform="translate(0,0)"/>
<path d="" fill="#91B382" transform="translate(0,0)"/>
<path d="" fill="#97B884" transform="translate(0,0)"/>
<path d="" fill="#94B583" transform="translate(0,0)"/>
<path d="" fill="#8CB080" transform="translate(0,0)"/>
<path d="" fill="#8FB080" transform="translate(0,0)"/>
<path d="" fill="#91B381" transform="translate(0,0)"/>
<path d="" fill="#8DAF7F" transform="translate(0,0)"/>
<path d="" fill="#91B382" transform="translate(0,0)"/>
<path d="" fill="#93B782" transform="translate(0,0)"/>
<path d="" fill="#8BAA7B" transform="translate(0,0)"/>
<path d="" fill="#8BA979" transform="translate(0,0)"/>
<path d="" fill="#89AA79" transform="translate(0,0)"/>
<path d="" fill="#93B683" transform="translate(0,0)"/>
<path d="" fill="#8DAF81" transform="translate(0,0)"/>
<path d="" fill="#90B381" transform="translate(0,0)"/>
<path d="" fill="#91B681" transform="translate(0,0)"/>
<path d="" fill="#93B683" transform="translate(0,0)"/>
<path d="" fill="#8DAF7D" transform="translate(0,0)"/>
<path d="" fill="#8FB17F" transform="translate(0,0)"/>
<path d="" fill="#91B681" transform="translate(0,0)"/>
<path d="" fill="#93B584" transform="translate(0,0)"/>
<path d="" fill="#95B784" transform="translate(0,0)"/>
<path d="" fill="#92B482" transform="translate(0,0)"/>
<path d="" fill="#95B985" transform="translate(0,0)"/>
<path d="" fill="#93B784" transform="translate(0,0)"/>
<path d="" fill="#94B682" transform="translate(0,0)"/>
<path d="" fill="#8BB17F" transform="translate(0,0)"/>
<path d="" fill="#8FB381" transform="translate(0,0)"/>
<path d="" fill="#92B783" transform="translate(0,0)"/>
<path d="" fill="#93B584" transform="translate(0,0)"/>
<path d="" fill="#91B482" transform="translate(0,0)"/>
<path d="" fill="#8EAC7D" transform="translate(0,0)"/>
<path d="" fill="#8DB07E" transform="translate(0,0)"/>
<path d="" fill="#94B684" transform="translate(0,0)"/>
<path d="" fill="#91B484" transform="translate(0,0)"/>
<path d="" fill="#8CAE7E" transform="translate(0,0)"/>
<path d="" fill="#8AA87A" transform="translate(0,0)"/>
<path d="" fill="#90B381" transform="translate(0,0)"/>
<path d="" fill="#8BAD7B" transform="translate(0,0)"/>
<path d="" fill="#8FB380" transform="translate(0,0)"/>
<path d="" fill="#90B483" transform="translate(0,0)"/>
<path d="" fill="#92B684" transform="translate(0,0)"/>
<path d="" fill="#89AB7C" transform="translate(0,0)"/>
<path d="" fill="#92B985" transform="translate(0,0)"/>
<path d="" fill="#8FB382" transform="translate(0,0)"/>
<path d="" fill="#86A979" transform="translate(0,0)"/>
<path d="" fill="#87A979" transform="translate(0,0)"/>
<path d="" fill="#8BAA7A" transform="translate(0,0)"/>
<path d="" fill="#92B480" transform="translate(0,0)"/>
<path d="" fill="#8CAF7D" transform="translate(0,0)"/>
<path d="" fill="#92B583" transform="translate(0,0)"/>
<path d="" fill="#93B684" transform="translate(0,0)"/>
<path d="" fill="#94B986" transform="translate(0,0)"/>
<path d="" fill="#8DB081" transform="translate(0,0)"/>
<path d="" fill="#8FB17F" transform="translate(0,0)"/>
<path d="" fill="#89AA7B" transform="translate(0,0)"/>
<path d="" fill="#88AC7D" transform="translate(0,0)"/>
<path d="" fill="#8BAE7B" transform="translate(0,0)"/>
<path d="" fill="#8AAD7B" transform="translate(0,0)"/>
<path d="" fill="#89AA7A" transform="translate(0,0)"/>
<path d="" fill="#8BAB7A" transform="translate(0,0)"/>
<path d="" fill="#8BAB7D" transform="translate(0,0)"/>
<path d="" fill="#89AB7C" transform="translate(0,0)"/>
<path d="" fill="#89AB7B" transform="translate(0,0)"/>
<path d="" fill="#8AAF7C" transform="translate(0,0)"/>
<path d="" fill="#8AAB79" transform="translate(0,0)"/>
<path d="" fill="#86A878" transform="translate(0,0)"/>
<path d="" fill="#88AA7A" transform="translate(0,0)"/>
<path d="" fill="#89AB79" transform="translate(0,0)"/>
<path d="" fill="#88AD7D" transform="translate(0,0)"/>
<path d="" fill="#89AB7A" transform="translate(0,0)"/>
<path d="" fill="#89AB7B" transform="translate(0,0)"/>
<path d="" fill="#8BAE7C" transform="translate(0,0)"/>
<path d="" fill="#87A97A" transform="translate(0,0)"/>
<path d="" fill="#8CAE7E" transform="translate(0,0)"/>
<path d="" fill="#86AA78" transform="translate(0,0)"/>
<path d="" fill="#89AB7A" transform="translate(0,0)"/>
</svg>
